<svg enable-background="new 0 0 436.505 152.503" height="152.503" viewBox="0 0 436.505 152.503" width="436.505" xmlns="http://www.w3.org/2000/svg"><g fill="#092e20"><path d="m51.464 0h23.872v110.496c-12.246 2.325-21.237 3.255-31.002 3.255-29.143-.001-44.334-13.175-44.334-38.443 0-24.337 16.122-40.147 41.078-40.147 3.875 0 6.82.309 10.386 1.239zm0 55.62c-2.79-.929-5.115-1.239-8.06-1.239-12.091 0-19.067 7.441-19.067 20.461 0 12.712 6.666 19.687 18.912 19.687 2.634 0 4.805-.155 8.215-.619z"/><path d="m113.312 36.865v55.338c0 19.067-1.395 28.212-5.58 36.118-3.876 7.597-8.992 12.401-19.532 17.672l-22.167-10.541c10.541-4.96 15.656-9.299 18.911-15.967 3.411-6.82 4.497-14.726 4.497-35.497v-47.123zm-23.871-36.738h23.871v24.492h-23.871z"/><path d="m127.731 42.29c10.542-4.959 20.617-7.129 31.623-7.129 12.246 0 20.306 3.254 23.872 9.61 2.014 3.565 2.634 8.215 2.634 18.137v48.517c-10.697 1.55-24.182 2.636-34.102 2.636-19.996 0-28.988-6.978-28.988-22.478 0-16.742 11.936-24.492 41.234-26.973v-5.27c0-4.34-2.17-5.889-8.216-5.889-8.835 0-18.756 2.48-28.058 7.286v-18.447zm37.358 37.978c-15.812 1.55-20.927 4.031-20.927 10.231 0 4.65 2.946 6.82 9.456 6.82 3.566 0 6.82-.309 11.471-1.084z"/><path d="m197.487 40.585c14.105-3.72 25.731-5.424 37.512-5.424 12.246 0 21.082 2.789 26.354 8.215 4.96 5.114 6.509 10.694 6.509 22.632v46.812h-23.872v-45.882c0-9.145-3.1-12.557-11.625-12.557-3.255 0-6.2.31-11.007 1.705v56.734h-23.871z"/><path d="m277.142 125.842c8.372 4.34 16.742 6.354 25.577 6.354 15.655 0 22.321-6.354 22.321-21.546 0-.155 0-.31 0-.465-4.65 2.324-9.301 3.255-15.5 3.255-20.927 0-34.26-13.796-34.26-35.652 0-27.129 19.688-42.473 54.564-42.473 10.232 0 19.688 1.084 31.159 3.409l-8.174 17.219c-6.356-1.24-.509-.166-5.312-.631v2.481l.309 10.074.154 13.022c.155 3.254.155 6.51.311 9.765v6.511c0 20.462-1.705 30.072-6.82 37.977-7.441 11.627-20.307 17.362-38.598 17.362-9.301 0-17.36-1.395-25.732-4.651v-22.011zm47.434-71.306c-.31 0-.619 0-.774 0h-1.706c-4.649-.155-10.074 1.084-13.796 3.409-5.734 3.256-8.681 9.147-8.681 17.517 0 11.937 5.892 18.757 16.432 18.757 3.255 0 5.891-.621 8.99-1.55v-1.706-6.509c0-2.79-.154-5.892-.154-9.146l-.154-11.005-.156-7.906v-1.861z"/><path d="m398.062 34.85c23.871 0 38.443 15.037 38.443 39.373 0 24.958-15.19 40.614-39.373 40.614-23.873 0-38.599-15.037-38.599-39.218.001-25.114 15.193-40.769 39.529-40.769zm-.467 60.764c9.147 0 14.573-7.596 14.573-20.772 0-13.02-5.271-20.771-14.415-20.771-9.457 0-14.884 7.597-14.884 20.771.001 13.177 5.427 20.772 14.726 20.772z"/></g></svg>